<svg id="Layer_1" data-name="Layer 1" xmlns="http://www.w3.org/2000/svg" viewBox="0 0 2272.74 2429.38"><defs><style>.cls-1{fill:#5e3a1c;}.cls-2{fill:#64bc4b;}.cls-3{fill:#3f9123;}.cls-4{fill:#f4d13b;}.cls-5{fill:#dcb51f;}.cls-6{fill:#fff;}.cls-7{fill:none;}</style></defs><rect class="cls-1" x="1125.68" y="86.36" width="141.38" height="399.33" rx="23.35" transform="translate(20.96 -76.63) rotate(3.7)"/><path d="M1258.69,487.88a73.42,73.42,0,0,1-56.77,21.44l-39.82-2.58a73.68,73.68,0,0,1-68.65-78.14l19.23-297.24a73.63,73.63,0,0,1,78.14-68.65l39.82,2.58a73.7,73.7,0,0,1,68.65,78.15l-19.22,297.23A73.3,73.3,0,0,1,1258.69,487.88Zm-92.37-371.42a27.65,27.65,0,0,0-8.11,17.85L1139,431.55A28,28,0,0,0,1165,461.21l39.83,2.57a27.94,27.94,0,0,0,29.66-26l19.23-297.24a28.07,28.07,0,0,0-26.06-29.66l-39.83-2.58a27.72,27.72,0,0,0-20.18,6.93C1167.21,115.6,1166.76,116,1166.32,116.46Z"/><path class="cls-2" d="M414.08,104.35C404,103.46,514.21,392.59,743.36,539.8c106.22,68.24,239.5,17.15,267.06,5a131.39,131.39,0,0,0,77.83-133.06c-2.74-27.33-4.34-133.25-134-220.39C716.32,31.42,408.46,96,414.08,104.35Z"/><path class="cls-3" d="M1088.26,411.75a131.4,131.4,0,0,1-77.84,133.06c-20.87,9.19-102.26,40.67-186.64,25.86a371.19,371.19,0,0,0,64.38-20.8,131.36,131.36,0,0,0,77.82-133c-2.72-27.33-4.33-133.24-134-220.39C715.35,118,581.89,93.54,476.77,90,578.23,77.41,784.12,77,954.26,191.37,1083.91,278.52,1085.52,384.43,1088.26,411.75Z"/><path d="M1066.77,533.48a154.66,154.66,0,0,1-47.16,32.22c-27.56,12.13-171,68.84-288.58-6.71-121.19-77.85-206.9-192-257.46-274C442.72,235,422.5,193.18,411,166.94c-24-54.74-21.12-63.3-19-69.55a23.54,23.54,0,0,1,1.91-4.2,22.09,22.09,0,0,1,4.31-5.8c3.43-3.43,11.47-11.45,69.54-19.24,29.14-3.91,76.18-8.11,134.73-5.94C699.3,65.8,841.14,87.84,967,172.43c131.42,88.34,140.53,196.51,143.52,232.06.16,1.88.3,3.56.44,5A153.39,153.39,0,0,1,1066.77,533.48ZM445,130c11.86,29.76,35.93,81.48,74.17,141.84,47.19,74.47,126.54,178.09,236.55,248.76,100,64.27,230.94,9.76,245.53,3.34A108.14,108.14,0,0,0,1065.55,414c-.17-1.64-.33-3.55-.51-5.71-2.81-33.34-10.26-121.9-123.5-198S699.8,112.79,612,108.31c-71.91-3.67-130.43,3-161.94,8.83l-9.51,1.62Z"/><path class="cls-3" d="M707.86,291.44S930.94,461.35,981.92,462s-3.29-64.15-3.29-64.15S759.48,328.31,707.86,291.44Z"/><path class="cls-4" d="M1879.78,1392.42c-5.84-359.76-189.4-664.94-444.79-788.69-45.23-21.91-83.43-55.62-111.77-97.13a181.14,181.14,0,0,0-302.93,5.47c-26.38,41.81-62.68,76.42-106.52,99.27-252.15,131.47-426.49,443-420.63,803.61,5.85,359.76,189.41,664.94,444.79,788.69,45.24,21.91,83.43,55.62,111.77,97.13a181.14,181.14,0,0,0,302.93-5.47c26.38-41.81,62.68-76.41,106.52-99.27C1711.3,2064.56,1885.64,1753,1879.78,1392.42Z"/><path class="cls-5" d="M1879.79,1392.42c5.85,360.58-168.49,672.13-420.65,803.61-43.84,22.85-80.13,57.45-106.51,99.26a181.07,181.07,0,0,1-263.82,46.89c44.31-11.67,81.41-42.59,104.64-84,24.75-44.15,58.84-80.64,100.07-104.71,237.11-138.44,400.63-467.35,394.44-848.38-4.63-284.95-103.18-537.67-253.57-701.68l.61.31C1690.38,727.47,1873.93,1032.65,1879.79,1392.42Z"/><path d="M1648.76,2098.52c-52.28,52.27-110.56,95.5-173.54,128.34-37.34,19.47-69.56,49.55-93.19,87a215.9,215.9,0,0,1-361,6.53c-25.27-37-59.24-66.57-98.22-85.45-133.49-64.69-247.93-175.27-331-319.81-84.37-146.88-130.51-319.64-133.43-499.6-2.93-180.39,37.75-354.89,117.65-504.65C654.67,763.46,765.9,649.23,897.7,580.51,935,561,967.26,531,990.89,493.52a215.91,215.91,0,0,1,361-6.52c25.28,37,59.24,66.56,98.22,85.45,133.49,64.68,247.93,175.26,331,319.81,84.36,146.86,130.5,319.64,133.43,499.6h0c2.93,180.38-37.75,354.88-117.65,504.64C1755.83,1973.47,1705.88,2041.4,1648.76,2098.52Zm-280.54,121.82a306.22,306.22,0,0,1,74.86-55.14C1692.75,2035,1850.53,1731.91,1845,1393h0c-5.49-338-172.39-635.48-425.19-758-49.88-24.17-93.22-61.8-125.32-108.82a146.92,146.92,0,0,0-131.93-63.53,145.13,145.13,0,0,0-112.88,68c-30.19,47.83-71.63,86.4-119.85,111.54-249.68,130.18-407.45,433.29-402,772.22,5.49,337.95,172.39,635.47,425.19,758,49.88,24.17,93.22,61.8,125.32,108.82a146.93,146.93,0,0,0,131.93,63.53,145.18,145.18,0,0,0,112.89-67.95A324.82,324.82,0,0,1,1368.22,2220.34Z"/><circle class="cls-5" cx="1688.53" cy="1500.15" r="77.48"/><circle class="cls-5" cx="1614.08" cy="1116.64" r="77.48"/><circle class="cls-5" cx="1570.53" cy="1921.59" r="77.48"/><circle class="cls-5" cx="1026.14" cy="1926.53" r="51.69"/><circle class="cls-5" cx="1367.72" cy="1584.95" r="50.66"/><circle class="cls-5" cx="1278.87" cy="830.59" r="50.66"/><path class="cls-6" d="M726.85,1597.73l-.05,0a34.74,34.74,0,0,1-46-22.82c-9.6-33.85-22.4-89.67-27.57-160.12-7.37-100.43.15-250,73.42-407.59a34.78,34.78,0,0,1,47.59-16.14h0a34.79,34.79,0,0,1,15.42,45.55c-66.52,143.1-73.67,279.15-67.27,370.54C727,1473,739,1525.31,747.69,1555.91A34.74,34.74,0,0,1,726.85,1597.73Z"/><path class="cls-6" d="M805.31,934.37h0a34.75,34.75,0,0,1-10.49-49.59c8.59-12.29,19.76-27.63,33.32-44.88a34.8,34.8,0,0,1,49.8-5.15h0a34.78,34.78,0,0,1,4.9,48.07c-12.63,16.08-23,30.39-31,41.74A34.77,34.77,0,0,1,805.31,934.37Z"/><rect class="cls-7" width="2272.74" height="2429.38"/></svg>